<svg id="Layer_1" data-name="Layer 1" xmlns="http://www.w3.org/2000/svg" xmlns:xlink="http://www.w3.org/1999/xlink" viewBox="0 0 332.98 228.08"><defs><style>.cls-1{fill:url(#linear-gradient);}.cls-2{fill:#14a085;}.cls-10,.cls-17,.cls-3{fill:#231f20;}.cls-4{fill:#6fc067;}.cls-11,.cls-13,.cls-15,.cls-18,.cls-20,.cls-5,.cls-6{fill:none;stroke-miterlimit:10;}.cls-18,.cls-20,.cls-5,.cls-6{stroke:#231f20;}.cls-5{stroke-width:3px;}.cls-7{fill:#a9d69f;}.cls-8{fill:#5d5e5e;}.cls-10,.cls-9{font-size:12px;font-weight:700;}.cls-10,.cls-17,.cls-9{font-family:Helvetica Neue;}.cls-11{stroke:#f57e20;}.cls-11,.cls-13,.cls-15{stroke-width:8px;}.cls-12{fill:#f57e20;}.cls-13{stroke:#1cbecf;}.cls-14{fill:#1cbecf;}.cls-15{stroke:#9268ac;}.cls-16{fill:#9268ac;}.cls-17{font-size:16px;font-style:italic;}.cls-18{stroke-width:2px;}.cls-19{fill:#fff;}.cls-20{stroke-width:0.5px;stroke-dasharray:5;}</style><linearGradient id="linear-gradient" x1="157.48" y1="-10.86" x2="161.53" y2="147.15" gradientUnits="userSpaceOnUse"><stop offset="0" stop-color="#fff"/><stop offset="0.86" stop-color="#fdfdfd"/><stop offset="1" stop-color="#fbfbfb"/></linearGradient></defs><title>leafsurface</title><rect class="cls-1" x="97.3" y="107.18" width="128.75" height="90.97"/><path class="cls-2" d="M219.17,281.93v-7.2H325.48v14.39" transform="translate(-29.86 -169.84)"/><path class="cls-3" d="M219.8,281.93v-3.6a7.84,7.84,0,0,1,0-2.28c0.74-2-1.42,0,1.34-.69s6.93,0,9.84,0h88.59c1.08,0,4-.56,4.61-0.27,1.55,0.7,0-.64.67,0.37a8.15,8.15,0,0,1,0,1.9v11.77a0.63,0.63,0,0,0,1.25,0V274.73a0.63,0.63,0,0,0-.62-0.62H219.17a0.63,0.63,0,0,0-.62.63v7.2a0.63,0.63,0,0,0,1.25,0h0Z" transform="translate(-29.86 -169.84)"/><path class="cls-2" d="M227.71,274.93c-2.94.59-6,0-9-.12s-6.8-4.06-8.66-2.13c-1.39,1.45-3.17,2.48-3.25,4.31s1.83,8.66,2.14,10.34c0.92,4.94,4.88,9.28,9.88,12.24s10.95,4.68,17,5.91" transform="translate(-29.86 -169.84)"/><path class="cls-3" d="M227.71,274.31c-5.13.66-9.31-.26-14-2.12-1.67-.66-2.49-0.83-4,0-4.62,2.4-3.42,6.75-2.47,10.78,1.35,5.75,2.65,10.37,7.3,14.38,5.86,5.05,13.64,7.21,21,8.79,0.78,0.17,1.12-1,.33-1.21-11.71-2.5-23.77-6.78-26.82-19.58a48,48,0,0,1-1.3-5.59c-0.25-2.22-1.39-3,1.59-5.57,1.85-1.59,3.37-1,5.27-.12a24.21,24.21,0,0,0,13.07,1.52c0.79-.1.8-1.35,0-1.25h0Z" transform="translate(-29.86 -169.84)"/><path class="cls-4" d="M241.34,284.43a3.66,3.66,0,0,0-2.27-2.78,13.45,13.45,0,0,0-4.06-1.05,70.11,70.11,0,0,0-12.88-.61,5.84,5.84,0,0,0-2.69.57A3.51,3.51,0,0,0,218,283a14.24,14.24,0,0,0,1.76,10.31,4,4,0,0,0,1,1.25,7,7,0,0,0,3.35.9c2.54,0.28,5.29.87,6.77,2.56,0.45,0.52.76,1.11,1.25,1.6,0.89,0.88,3.26,1.58,4.58,2" transform="translate(-29.86 -169.84)"/><path class="cls-3" d="M241.94,284.26c-1.56-5-9.12-4.69-13.36-4.9-5.13-.24-10.74-1.27-11.47,5-0.42,3.61.57,9.82,4.47,11.33,3.67,1.42,6,.64,9.45,3.62a13.56,13.56,0,0,0,5.5,2.93,0.63,0.63,0,0,0,.33-1.21,12.08,12.08,0,0,1-5.46-3.3,8.2,8.2,0,0,0-2.07-1.58c-2.72-1.44-6.92-.64-9.09-3.14-1.53-1.77-3.05-7.77-1.7-9.82,1.53-2.31,4.36-2.63,6.8-2.63,3.86,0,13.89-.71,15.38,4.06a0.63,0.63,0,0,0,1.21-.33h0Z" transform="translate(-29.86 -169.84)"/><path class="cls-4" d="M285.18,285.68c1-2.16-3.66-3.68-7.47-4.16-10.35-1.29-21.09-.94-31.67-0.59a7.3,7.3,0,0,0-2.63.41,2.66,2.66,0,0,0-1.26,1.32c-5.43,10-9.83,21-2.78,30.69a12,12,0,0,0,5.59,4.39,29.07,29.07,0,0,0,7.72,1.39,164.89,164.89,0,0,0,16.75.51c3.28-.07,7.26-0.53,8.27-2.32" transform="translate(-29.86 -169.84)"/><path class="cls-3" d="M285.78,285.85c1-7.21-21.1-5.85-24.76-5.86s-7.5.09-11.24,0.2c-1.83.06-4.93-.37-6.69,0.61-3.52,2-5.55,9.59-6.66,13.25-2.69,8.88-1,21.19,9.07,24.52,6,2,13.07,1.67,19.26,1.71,3.92,0,10.44.81,13.38-2.53,0.53-.6-0.35-1.49-0.88-0.88-2.84,3.23-9.53,2.2-13.43,2.15-4.25-.05-8.55-0.2-12.77-0.67-12.15-1.37-16.74-12.07-13.66-23.19,0.94-3.38,2.68-9.74,5.29-12.19,3-2.84,10.85-1.66,14.59-1.71,3.12,0,28-.76,27.3,4.25-0.11.79,1.09,1.13,1.21,0.33h0Z" transform="translate(-29.86 -169.84)"/><path class="cls-4" d="M322.87,281.66l-27,.23c-2.58,0-5.38.09-7.38,1a6.77,6.77,0,0,0-2.94,2.82c-6,9.62-6.13,20.09-6.16,30.31a2.52,2.52,0,0,0,.76,2.17,7.56,7.56,0,0,0,3,1.15,90.79,90.79,0,0,0,38.72.21" transform="translate(-29.86 -169.84)"/><path class="cls-3" d="M322.87,281l-19.26.17c-4.56,0-11-1-15.25,1.11-6.9,3.4-8.62,15.67-9.2,22.39-0.29,3.39-1.57,9.62-.16,12.79s7.18,3.18,10,3.62a92.64,92.64,0,0,0,33.08-.94c0.79-.16.45-1.37-0.33-1.21a91.92,91.92,0,0,1-26.41,1.65c-3.42-.28-13.55-0.34-15.25-4.57-1-2.55.11-8.63,0.35-11.34a46.37,46.37,0,0,1,2.71-12.62,26.7,26.7,0,0,1,3-6c2.75-3.55,5.91-3.46,9.78-3.54,9-.18,18-0.16,27-0.23a0.63,0.63,0,0,0,0-1.25h0Z" transform="translate(-29.86 -169.84)"/><path class="cls-2" d="M173.92,281.79v-7.12H52.4v14.24" transform="translate(-29.86 -169.84)"/><path class="cls-3" d="M174.55,281.79v-7.12a0.63,0.63,0,0,0-.62-0.62H52.4a0.63,0.63,0,0,0-.62.63v14.24a0.63,0.63,0,0,0,1.25,0v-7.6a31.6,31.6,0,0,1,0-4.76c0.4-2.49.19-1.42,3.36-1.25,15.17,0.81,30.62,0,45.82,0H148c7.27,0,14.65.36,21.91,0,1,0,3.09-.46,3.36,0a10.08,10.08,0,0,1,0,2.46v4a0.63,0.63,0,0,0,1.25,0h0Z" transform="translate(-29.86 -169.84)"/><path class="cls-2" d="M164.17,274.86c3.36,0.58,6.89,0,10.34-.11s5-5.75,9.48,2.17a11.6,11.6,0,0,1,1.9,5.18,19,19,0,0,1-.22,5c-1.05,4.89-5.58,9.18-11.29,12.11s-12.52,4.63-19.38,5.85" transform="translate(-29.86 -169.84)"/><path class="cls-3" d="M164.17,275.49c3.63,0.44,8.56.82,12-.54,2.88-1.12,2.75-3.18,6.33.79,2.54,2.82,3.38,7.66,2.53,11.24-2.9,12.16-19.88,15.62-30.23,17.52-0.79.15-.46,1.35,0.33,1.21,11.55-2.13,31.48-6.78,31.41-21.92,0-3.53-2.09-10.86-6.32-11.64-1.43-.26-2.24.51-3.45,1-3.75,1.65-8.57,1.54-12.64,1-0.8-.1-0.79,1.16,0,1.25h0Z" transform="translate(-29.86 -169.84)"/><path class="cls-4" d="M148.59,284.26c0.07-1.14,1.2-2.15,2.59-2.75a17.32,17.32,0,0,1,4.65-1,92.48,92.48,0,0,1,14.72-.61,7.57,7.57,0,0,1,3.07.56,3.43,3.43,0,0,1,1.7,2.43,12.49,12.49,0,0,1-2,10.19,4.19,4.19,0,0,1-1.19,1.24,9,9,0,0,1-3.83.89c-2.9.28-6,.86-7.73,2.53-0.52.51-.87,1.1-1.43,1.58-1,.87-3.73,1.56-5.23,2" transform="translate(-29.86 -169.84)"/><path class="cls-3" d="M149.19,284.42c1.78-4.93,13.52-4,17.67-4,2.55,0,6.45-.38,7.86,2.6,1.19,2.51,0,7.8-2,9.71-2.6,2.53-7.27,1.67-10.42,3.1a13.12,13.12,0,0,0-2.93,2.24,14.1,14.1,0,0,1-5.69,2.58,0.63,0.63,0,0,0,.33,1.21,15.6,15.6,0,0,0,6.24-2.9c3.83-3,6.76-2.07,10.85-3.58s5.57-7.3,5.05-11.21c-0.87-6.55-7.89-5.13-13-4.92-4.55.19-13.29-.4-15.18,4.85-0.27.76,0.93,1.08,1.21,0.33h0Z" transform="translate(-29.86 -169.84)"/><path class="cls-4" d="M98.46,285.5c-1.09-2.14,4.19-3.64,8.54-4.11,11.84-1.27,24.11-.93,36.2-0.58a9.53,9.53,0,0,1,3,.4,2.83,2.83,0,0,1,1.44,1.3c6.21,9.88,11.23,20.81,3.18,30.36a13.61,13.61,0,0,1-6.39,4.35,37.9,37.9,0,0,1-8.82,1.37c-6.33.45-12.75,0.61-19.14,0.5-3.75-.07-8.3-0.53-9.46-2.29" transform="translate(-29.86 -169.84)"/><path class="cls-3" d="M99.07,285.33c-0.94-4.68,27.69-4.23,30.73-4.2,4.37,0,13.82-1.34,17.32,1.7,2.82,2.45,5,8.83,6.1,12.2,1.57,5,1.69,10.13-1,14.76-3.25,5.67-8.58,7.43-14.78,8-5.05.49-10.16,0.63-15.24,0.67-4.06,0-11.63,1.1-14.77-2.14a0.63,0.63,0,0,0-.88.88c3.16,3.26,9.66,2.51,13.74,2.51,7.38,0,15.46.29,22.68-1.48,11-2.68,14.6-14.44,11.19-24.31-1.37-4-3.82-11.23-7.65-13.29-2-1.06-5-.54-7.15-0.59-4.47-.12-8.94-0.22-13.42-0.21-3.49,0-29.53-1.29-28.1,5.8,0.16,0.79,1.36.45,1.21-.33h0Z" transform="translate(-29.86 -169.84)"/><path class="cls-4" d="M55.39,281.51l30.82,0.23c3,0,6.16.09,8.44,1A7.35,7.35,0,0,1,98,285.55c6.9,9.52,7,19.87,7,30a2.3,2.3,0,0,1-.87,2.15,9.46,9.46,0,0,1-3.4,1.13,119.57,119.57,0,0,1-44.26.2" transform="translate(-29.86 -169.84)"/><path class="cls-3" d="M55.39,282.14c10.27,0.08,20.55,0,30.82.23,3,0.05,6.57-.17,9.27,1.51,2.21,1.38,3.64,4.28,4.78,6.55a40.17,40.17,0,0,1,3.84,14.68c0.34,3.81,1.91,10.76-2.2,12.82s-10.6,1.8-15.08,2.12a120.57,120.57,0,0,1-30.13-1.64c-0.79-.14-1.12,1.06-0.33,1.21a121.2,121.2,0,0,0,37.56,1c2.91-.39,8.48-0.32,10.76-2.52,2.55-2.47.94-9.86,0.67-12.95-0.63-7.2-2.91-19.67-10.52-23-5.3-2.29-12.63-1.07-18.24-1.11l-21.19-.16a0.63,0.63,0,0,0,0,1.25h0Z" transform="translate(-29.86 -169.84)"/><line class="cls-5" x1="24.03" y1="102.85" x2="24.03" y2="1.66"/><path class="cls-5" d="M89.21,216.54c0,31-15.8,56.14-35.33,56.14" transform="translate(-29.86 -169.84)"/><line class="cls-5" x1="59.35" y1="47.01" x2="59.35" y2="1.66"/><line class="cls-6" x1="25.15" y1="2.78" x2="53.75" y2="2.78"/><polygon class="cls-3" points="51.64 5.55 52.82 2.78 51.64 0 58.23 2.78 51.64 5.55"/><line class="cls-6" x1="25.15" y1="23.14" x2="53.75" y2="23.14"/><polygon class="cls-3" points="51.64 25.91 52.82 23.14 51.64 20.36 58.23 23.14 51.64 25.91"/><line class="cls-6" x1="25.15" y1="43.68" x2="53.75" y2="43.68"/><polygon class="cls-3" points="51.64 46.46 52.82 43.68 51.64 40.9 58.23 43.68 51.64 46.46"/><line class="cls-6" x1="25.15" y1="62.37" x2="52.57" y2="62.37"/><polygon class="cls-3" points="50.47 65.15 51.65 62.38 50.47 59.6 57.05 62.38 50.47 65.15"/><line class="cls-6" x1="24.03" y1="79.03" x2="47.66" y2="79.03"/><polygon class="cls-3" points="45.56 81.81 46.74 79.03 45.56 76.25 52.14 79.03 45.56 81.81"/><line class="cls-6" x1="25.15" y1="94.21" x2="36.62" y2="94.21"/><polygon class="cls-3" points="34.52 96.99 35.7 94.21 34.52 91.43 41.1 94.21 34.52 96.99"/><path class="cls-7" d="M295.08,350.59c-0.45-6.84-.29-13.85-0.73-20.69-0.13-2,.58-5.27-0.67-6.71a8.2,8.2,0,0,0-3.83-2c-12.22-3.71-26.54-1.4-39.28-.47a4.55,4.55,0,0,0-2.67.78,5,5,0,0,0-1.31,2.37,43.18,43.18,0,0,0,1.25,29.52" transform="translate(-29.86 -169.84)"/><path class="cls-3" d="M295.7,350.59c-0.36-6.27-.35-12.55-0.63-18.82-0.11-2.63.81-6.68-.91-9-2.12-2.8-7.61-3.24-10.7-3.69a79.31,79.31,0,0,0-15.69-.45c-5.46.29-10.93,0.8-16.37,1.32-3,.29-4.29.8-5.42,3.68-3.67,9.29-2.35,20.82,1.25,29.85,0.29,0.74,1.5.42,1.21-.33a43.37,43.37,0,0,1-2.14-26c0.63-2.72.93-4.73,4.28-5.93,1.42-.51,3.51-0.28,5.06-0.42,4-.35,8.09-0.76,12.15-1,6.05-.32,24.39-2.12,26,6.43,0.64,3.32.13,7.69,0.22,11.07,0.11,4.39.18,8.79,0.43,13.18,0,0.8,1.3.8,1.25,0h0Z" transform="translate(-29.86 -169.84)"/><path class="cls-7" d="M38.05,352.67V334c0-1.79.06-3.72,1.34-5.13a9,9,0,0,1,3.91-2.09c13.37-4.4,28-4.71,42.27-5a6,6,0,0,1,3,.47,4.35,4.35,0,0,1,1.64,2c4.12,8.39-1,12.76-1.91,25.4" transform="translate(-29.86 -169.84)"/><path class="cls-3" d="M38.68,352.67v-13a33.47,33.47,0,0,1,0-5.59c0.84-4.66,4.26-6.56,8.31-7.67a116.47,116.47,0,0,1,25.5-3.52c3.94-.18,8.25-0.78,12.16-0.35,5.39,0.6,6.85,4.69,6.52,9.36-0.42,6-2.9,11.82-3.45,17.9-0.07.8,1.18,0.8,1.25,0,0.63-7.06,4.78-15.07,3.12-22.19-0.67-2.9-1.79-5.45-4.77-6.28-1.92-.53-4.43,0-6.42,0-3.12.07-6.24,0.16-9.36,0.32-9.59.49-22.06,0.8-30.68,5.5-2.88,1.57-3.32,3.81-3.45,6.9-0.25,6.19,0,12.44,0,18.63a0.63,0.63,0,0,0,1.25,0h0Z" transform="translate(-29.86 -169.84)"/><path class="cls-7" d="M87.42,350L89,329.43c0.15-2,.38-4.1,1.8-5.54a8.94,8.94,0,0,1,4.14-2c13.93-3.76,28.77-2.91,43.27-2a5.69,5.69,0,0,1,3,.77,4.77,4.77,0,0,1,1.49,2.37c3.46,9.58,3.43,14,1.43,27.83" transform="translate(-29.86 -169.84)"/><path class="cls-3" d="M88,350l1-13.06c0.44-5.63-.5-12.36,6.07-14.39,8.88-2.74,18.69-2.9,27.9-2.72,4.19,0.08,9.24-.33,13.31.6a3.69,3.69,0,0,1,4.08,2.09,4.23,4.23,0,0,1,2.6,3.2,22.94,22.94,0,0,1,1.23,4.48c1.41,6.8.31,13.74-.65,20.52-0.11.79,1.09,1.13,1.21,0.33,1.11-7.81,2.22-15.62.12-23.36-0.63-2.31-1.31-6.16-3.47-7.6-1.84-1.23-4.94-.9-7-1-3.17-.18-6.34-0.35-9.51-0.44a131.07,131.07,0,0,0-18.91.61c-4.41.51-9.57,1-13.6,2.94-3.42,1.68-3.81,4.7-4.11,8.23-0.55,6.53-1,13.07-1.54,19.6-0.06.8,1.19,0.8,1.25,0h0Z" transform="translate(-29.86 -169.84)"/><path class="cls-7" d="M330.13,342.73c2.17,0.37,3.61-1.78,4-3.53,1.16-4.59.62-3.68-.49-14.35a25.91,25.91,0,0,0-1.5-4.69c-0.33-.31-5.94.69-6.75,0.75-10.26.79-13.28-.6-23.37,0.69-1.81.23-4.69-.25-5.67,1-0.83,1.06-.71,3.46-1,5.17a77.05,77.05,0,0,0-.25,11.42c0.11,1.49.25,6.83,0.33,10.67" transform="translate(-29.86 -169.84)"/><path class="cls-3" d="M330.13,343.35c6.62-.32,5.24-9.46,4.71-13.84-0.24-2-.24-8.25-2.16-9.73-1.47-1.13-5.57.33-7.24,0.51-5.63.59-11.27,0-16.91,0.15-3.14.11-6.48,0.28-9.6,0.67-1.18.15-2.24,0.2-3.07,1.17-2.14,2.52-1.38,9.43-1.4,12.51,0,5,.32,10,0.44,15.05a0.63,0.63,0,0,0,1.25,0c-0.15-6.7-.75-13.47-0.27-20.17,0.2-2.71.93-6,3.69-7.36,1.59-.77,4.95-0.39,6.75-0.51,3.73-.26,7.45-0.06,11.19,0a69.16,69.16,0,0,0,9.24-.43c3.88-.48,5.27-1.22,6.17,2.94,0.63,2.92,3.81,17.48-2.79,17.8a0.63,0.63,0,0,0,0,1.25h0Z" transform="translate(-29.86 -169.84)"/><path class="cls-8" d="M145.57,343.33" transform="translate(-29.86 -169.84)"/><path class="cls-8" d="M57.49,343.33" transform="translate(-29.86 -169.84)"/><text class="cls-9" transform="translate(132.27 165.14)">stomatal pore</text><text class="cls-10" transform="translate(52.14 100.46)">epidermis</text><line class="cls-11" x1="122.14" y1="29.18" x2="122.14" y2="83.24"/><polygon class="cls-12" points="110.18 79.74 122.14 100.47 134.11 79.74 110.18 79.74"/><line class="cls-13" x1="166.5" y1="128.33" x2="166.5" y2="74.27"/><polygon class="cls-14" points="178.46 77.77 166.5 57.05 154.53 77.77 178.46 77.77"/><path class="cls-15" d="M252.71,250.4c0,24.11,33.8,27,38.66.67" transform="translate(-29.86 -169.84)"/><polygon class="cls-16" points="270.97 84.39 261.45 66.86 251.03 83.87 270.97 84.39"/><text class="cls-17" transform="translate(103.66 15.49)">q</text><text class="cls-17" transform="translate(113.15 20.82) scale(0.58)">rad,leaf</text><text class="cls-17" transform="translate(147.99 46.49)">q</text><text class="cls-17" transform="translate(157.48 51.82) scale(0.58)">lat,leaf</text><text class="cls-17" transform="translate(214.71 62.37)">q</text><text class="cls-17" transform="translate(224.2 67.7) scale(0.58)">sen,leaf</text><line class="cls-18" x1="313.98" y1="156.5" x2="313.98" y2="170.67"/><polyline class="cls-18" points="314.81 52.71 303.47 58.95 314.81 65.2 303.47 71.45 314.81 77.7 303.47 83.95 314.81 90.21"/><rect class="cls-19" x="321.4" y="216.53" width="39.28" height="13.6" transform="translate(227.94 -345.58) rotate(45)"/><line class="cls-18" x1="313.98" y1="90.72" x2="313.98" y2="104.89"/><line class="cls-20" x1="332.95" y1="104.83" x2="295.62" y2="104.83"/><rect class="cls-19" x="320.75" y="221.74" width="39.28" height="13.6" transform="translate(-97.73 21.04) rotate(-28.61)"/><line class="cls-18" x1="313.98" y1="58.39" x2="313.98" y2="65.38"/><polygon class="cls-3" points="308.99 59.84 313.98 51.21 318.96 59.84 308.99 59.84"/><text class="cls-17" transform="translate(322.81 152.01)">r</text><text class="cls-17" transform="translate(328.14 157.34) scale(0.58)">s</text><text class="cls-17" transform="translate(322.81 81.22)">r</text><text class="cls-17" transform="translate(328.14 86.55) scale(0.58)">a</text><path class="cls-7" d="M66.82,376.92l1.42-19.77c0.14-1.89.32-3.95,1.18-5.37a5.32,5.32,0,0,1,2.47-2c8.25-3.94,16.91-3.47,25.38-3a2.26,2.26,0,0,1,1.76.67,5.2,5.2,0,0,1,.81,2.24c1.8,9.13,1.68,13.34.19,26.71" transform="translate(-29.86 -169.84)"/><path class="cls-3" d="M67.45,376.92l0.85-11.86c0.29-4-.11-8.95,1.94-12.44,3.6-6.13,15.66-5.66,21.94-5.45,2.57,0.09,5.54-.24,7.08,2.72a11.34,11.34,0,0,1,.56,3.07,54.37,54.37,0,0,1,.72,6.9,115.2,115.2,0,0,1-1.11,16.57c-0.09.8,1.16,0.79,1.25,0,0.81-7.3,1.64-14.61.64-21.93-0.28-2-.27-5.79-1.77-7.4-1.68-1.8-6.16-1.15-8.21-1.21-6.22-.17-17.52-0.36-22,5-1.83,2.2-1.68,5.54-1.88,8.23Q66.82,368,66.2,376.92c-0.06.8,1.19,0.8,1.25,0h0Z" transform="translate(-29.86 -169.84)"/><path class="cls-7" d="M244,385.81l-5.15-19.69a14.52,14.52,0,0,0-2.1-5.22,5.08,5.08,0,0,0-2.58-1.64c-8.05-2.67-12.6-4-20-2.2a23.11,23.11,0,0,0-4.43,4.16c-0.29.6-.21,4.19-0.19,5.06,0.21,9.48,1.06,11,5,24.27" transform="translate(-29.86 -169.84)"/><path class="cls-3" d="M244.56,385.64q-2.34-9-4.68-17.9c-0.79-3-1.33-6.63-4.12-8.43-5-3.21-16.65-5.6-22.26-2.6-5.19,2.78-4.76,6.94-4.52,12.07,0.35,7.62,2.78,14.67,5,21.92a0.63,0.63,0,0,0,1.21-.33c-1.72-5.72-3.86-11.5-4.59-17.46-0.53-4.29-1.6-10.32,1.75-13.53,4.9-4.69,16.12-2.43,21.67.48,4.42,2.31,5,9.19,6.11,13.58L243.35,386a0.63,0.63,0,0,0,1.21-.33h0Z" transform="translate(-29.86 -169.84)"/><path class="cls-7" d="M293.29,376.07l-4-17.23a12.52,12.52,0,0,0-1.71-4.59,4.43,4.43,0,0,0-2.21-1.48c-7-2.5-13.65-1.08-20.16.36a1.63,1.63,0,0,0-1.27.79,5,5,0,0,0-.3,2.07c-0.06,8.25.65,11.94,3.77,23.53" transform="translate(-29.86 -169.84)"/><path class="cls-3" d="M293.89,375.91c-1.19-5.11-2.35-10.22-3.56-15.32-0.65-2.73-1-5.93-3.38-7.74-5-3.75-13.93-2-19.46-.85s-4.69,3.95-4.38,9.25c0.38,6.29,2.06,12.38,3.68,18.44a0.63,0.63,0,0,0,1.21-.33,124.89,124.89,0,0,1-3.16-13.55c-0.5-3.32-2-10.5,1.35-12.25,2.35-1.24,6.31-1.29,8.92-1.45,5.06-.32,10.26.38,13.16,5.24,1.38,2.31,1.58,6.67,2.2,9.33l2.22,9.57a0.63,0.63,0,0,0,1.21-.33h0Z" transform="translate(-29.86 -169.84)"/><path class="cls-7" d="M327.34,373.2l-4.51-19.3c-0.43-1.85-.93-3.85-2-5.11a5.34,5.34,0,0,0-2.77-1.59c-8.8-2.59-17.33-.75-25.66,1.09a2.28,2.28,0,0,0-1.65.94,5.19,5.19,0,0,0-.46,2.34c-0.36,9.3.42,13.44,4,26.41" transform="translate(-29.86 -169.84)"/><path class="cls-3" d="M327.95,373l-3.83-16.41c-0.69-2.94-1.07-7.1-3.72-9.06-5.73-4.23-16.36-2.27-22.79-1-2.08.4-6,.35-7.4,2.36s-0.66,5.89-.6,8.06c0.2,7.25,2.17,14.22,4.07,21.17a0.63,0.63,0,0,0,1.21-.33,113.73,113.73,0,0,1-3.67-16.1,53.43,53.43,0,0,1-.38-6.43,17.05,17.05,0,0,1,.08-3.71c0.86-3.14,2.69-2.93,5.23-3.45,6.11-1.26,20.49-4.36,24.85,2.07,2,3,2.24,8.15,3,11.61l2.7,11.58a0.63,0.63,0,0,0,1.21-.33h0Z" transform="translate(-29.86 -169.84)"/><rect class="cls-19" x="291.4" y="136.54" width="26.34" height="86.94"/><path class="cls-7" d="M39.55,381.29l1.27-19.78a14.78,14.78,0,0,1,1-5.38,4.85,4.85,0,0,1,2.06-2C50.77,350,58,350.36,65,350.73a1.68,1.68,0,0,1,1.46.64,5.77,5.77,0,0,1,.67,2.23c1.46,9.1,1.34,13.31,0,26.69" transform="translate(-29.86 -169.84)"/><path class="cls-3" d="M40.18,381.29c0.45-7,.56-14.21,1.37-21.22,1-8.37,13.35-9.74,20.22-8.87,4.68,0.59,5,3.25,5.44,7.16a62,62,0,0,1,.39,6.43,151.29,151.29,0,0,1-1,15.5c-0.08.8,1.17,0.79,1.25,0,0.68-7.11,1.42-14.25.68-21.38-0.21-2.07-.12-5.59-1.27-7.35C66,349.64,64,350,61.77,350c-5.92-.2-15.06-0.12-19.52,4.6-2.38,2.52-2,6.74-2.24,9.92l-1.08,16.81c-0.05.8,1.2,0.8,1.25,0h0Z" transform="translate(-29.86 -169.84)"/><rect class="cls-19" x="31.66" y="322.72" width="26.34" height="58.29" transform="translate(-51.88 -166.33) rotate(-3.6)"/><line class="cls-18" x1="313.98" y1="112" x2="313.98" y2="119"/><polygon class="cls-3" points="308.99 113.46 313.98 104.83 318.96 113.46 308.99 113.46"/><polyline class="cls-18" points="314.15 118.88 302.81 130.91 314.15 142.95 302.81 154.99 314.15 167.02 302.81 179.06 314.15 191.11"/><path class="cls-7" d="M96.49,371l1.06-14.64a9,9,0,0,1,.9-4,4,4,0,0,1,1.89-1.48c6.32-2.9,13-2.54,19.46-2.15a1.77,1.77,0,0,1,1.35.5,3.79,3.79,0,0,1,.63,1.66c1.4,6.77,1.31,9.88.19,19.78" transform="translate(-29.86 -169.84)"/><path class="cls-3" d="M97.12,371c0.33-4.56-.18-10.26,1.06-14.64,2.07-7.36,11.79-8.09,18.07-7.17,3.3,0.48,4.87,1.14,5.42,4.43a38.5,38.5,0,0,1,.53,5.45,88.23,88.23,0,0,1-.85,11.63c-0.09.8,1.16,0.79,1.25,0,0.65-5.84,1.24-11.58.27-17.41-0.89-5.38-2.06-5.21-7.51-5.37-4.79-.14-14.07-0.39-17.35,4-1.23,1.66-1.07,4.35-1.22,6.24-0.32,4.27-.62,8.54-0.93,12.81-0.06.8,1.19,0.8,1.25,0h0Z" transform="translate(-29.86 -169.84)"/><path class="cls-7" d="M119,373.06l4-17.46a13.11,13.11,0,0,1,1.7-4.65,4.42,4.42,0,0,1,2.18-1.52c6.85-2.6,13.36-1.22,19.72.17a1.56,1.56,0,0,1,1.24.79,5.15,5.15,0,0,1,.29,2.09c0,8.33-.7,12.07-3.82,23.82" transform="translate(-29.86 -169.84)"/><path class="cls-3" d="M119.56,373.23c1.39-6,2.07-13,4.32-18.73,1.78-4.58,6.73-5.81,11.21-5.89,2.74,0,7.91,0,10.44,1.41,3.3,1.81,1.83,9,1.31,12.39a131.27,131.27,0,0,1-3.17,13.73,0.63,0.63,0,0,0,1.21.33c1.57-6,3.22-12,3.67-18.13,0.15-2.11,1-6.2-.14-8.11-0.9-1.5-2.69-1.46-4.29-1.78-5.53-1.11-14.74-2.75-19.37,1.57-2,1.83-2.26,4.89-2.83,7.36-1.2,5.17-2.38,10.35-3.57,15.52a0.63,0.63,0,0,0,1.21.33h0Z" transform="translate(-29.86 -169.84)"/><path class="cls-7" d="M144.13,373l3.36-14.29A7,7,0,0,1,149.2,355a5.13,5.13,0,0,1,2.66-1c8.6-1.47,17.19.38,25.58,2.22a2.88,2.88,0,0,1,1.69.8,3.45,3.45,0,0,1,.59,1.79c0.9,7,.37,10.1-2.44,19.67" transform="translate(-29.86 -169.84)"/><path class="cls-3" d="M144.74,373.18l1.89-8c0.5-2.15.63-5.85,1.83-7.63,4-5.9,15.69-3.32,21.58-2.25,2,0.36,5.56.44,7.24,1.5,2.33,1.48,2.24,5.12,2.22,7.52,0,4.78-1.49,9.41-2.81,14a0.63,0.63,0,0,0,1.21.33c1.79-6.17,3.35-12,2.62-18.48-0.63-5.59-5.05-5.12-10.14-6-6-1.09-14.5-3-20.23-.32-2.14,1-2.63,2.69-3.26,4.83-1.36,4.68-2.24,9.55-3.36,14.29a0.63,0.63,0,0,0,1.21.33h0Z" transform="translate(-29.86 -169.84)"/><path class="cls-7" d="M262.3,379.46l1-16.17a11.06,11.06,0,0,0-.31-4.47,4.13,4.13,0,0,0-1.62-1.89c-5.69-4.06-12.17-4.6-18.5-5.08a1.6,1.6,0,0,0-1.38.36,4.46,4.46,0,0,0-.84,1.73c-2.31,7.21-2.67,10.63-3,21.63" transform="translate(-29.86 -169.84)"/><path class="cls-3" d="M262.93,379.46c0.31-4.79.64-9.58,0.93-14.37,0.16-2.6.69-5.49-1-7.71-3.25-4.29-11.13-5.29-16-5.8-6-.63-6.31,0-7.84,5.73-1.6,6-1.77,12.12-2,18.27a0.63,0.63,0,0,0,1.25,0,99.13,99.13,0,0,1,1-13.69,50,50,0,0,1,1.26-5.37c0.8-2.8,1.56-4.12,4.73-3.84,6.31,0.56,16.81,1.61,17.46,9.84,0.42,5.44-.73,11.5-1.09,17-0.05.8,1.2,0.8,1.25,0h0Z" transform="translate(-29.86 -169.84)"/><path class="cls-7" d="M173.56,388l2.88-20.74c0.28-2,.61-4.14,1.58-5.58a20.74,20.74,0,0,1,4.82-4c8.31-3.8,12.08-3.93,16.95-4,5.34-.08,6.4,3,7.58,4.95a14.22,14.22,0,0,1,1.62,5.54c1.14,9.74.42,11.42-2.07,25.41" transform="translate(-29.86 -169.84)"/><path class="cls-3" d="M174.16,388.13L176.26,373c0.56-4,.47-9,3.32-12.15,4.42-4.9,13.34-6.74,19.69-6.6,15,0.32,8.58,26.48,7,35.1-0.14.79,1.06,1.12,1.21,0.33,1.53-8.54,8-34.61-6.17-36.62a30.81,30.81,0,0,0-20.94,5.46c-3.14,2.4-4,4.59-4.57,8.48-1.08,6.89-1.92,13.83-2.88,20.74-0.11.79,1.1,1.13,1.21,0.33h0Z" transform="translate(-29.86 -169.84)"/><rect class="cls-19" x="175.29" y="234.7" width="26.34" height="300.11" transform="translate(-226.15 403.37) rotate(-90)"/></svg>